<svg width="120" height="39" viewBox="0 0 120 39" fill="none" xmlns="http://www.w3.org/2000/svg">
<path d="M2.6 28.24C2.4 27.4 1.72 25.36 1.2 24.24C2.24 24 3.12 23.08 4.36 21.6C5.72 20.12 9.8 14.44 12.44 8.88L16.12 11.2C13.2 16.56 9.28 22.04 5.48 26V26.12C5.48 26.12 2.6 27.44 2.6 28.24ZM2.6 28.24L2.32 24.52L4.36 23.12L15.4 21.28C15.24 22.48 15.2 24.32 15.24 25.28C5.32 27.16 3.68 27.64 2.6 28.24ZM2.28 18.48C2.08 17.6 1.36 15.44 0.84 14.24C1.64 14.04 2.32 13.16 3.2 11.88C4.08 10.6 6.76 5.6 8.12 0.919998L12.44 2.92C10.52 7.6 7.6 12.64 4.76 16.16V16.28C4.76 16.28 2.28 17.68 2.28 18.48ZM2.28 18.48L2.16 15.28L4.08 14L10.76 13.48C10.52 14.64 10.32 16.28 10.32 17.2C4.32 17.84 3.08 18.12 2.28 18.48ZM1.28 32.28C4.96 31.6 10.6 30.28 15.96 29.04L16.44 33.04C11.48 34.4 6.2 35.76 2.16 36.84L1.28 32.28ZM20.72 15.96H37.16V20.24H20.72V15.96ZM20.8 23.64H37.24V27.92H20.8V23.64ZM20.4 31.56H38.68V36H20.4V31.56ZM27.68 9.68H32.12V33.92H27.68V9.68ZM22.76 8.2H38.16V12.52H22.76V38.68H18.28V10.96L20.92 8.2H22.76ZM21.52 1.16L26.12 2.48C24 8.6 20.68 15.44 16.64 20C16.2 18.8 15.2 16.64 14.56 15.48C17.6 11.84 20.28 5.8 21.52 1.16ZM26.56 2.92L30.6 1.2C31.8 2.96 32.96 5.28 33.48 6.84L29.2 8.8C28.8 7.2 27.64 4.76 26.56 2.92Z" fill="#37D964"/>
<path d="M53.36 3.88H78.56V7.6H53.36V3.88ZM53.36 22.2H78.68V26H53.36V22.2ZM60.84 27.68L63.2 24.92C65.6 25.72 68.72 27.2 70.36 28.36L67.84 31.4C66.36 30.2 63.28 28.64 60.84 27.68ZM59.84 29.2H64.24V33.32C64.24 34.28 64.4 34.4 65.28 34.4C65.64 34.4 67.28 34.4 67.76 34.4C68.52 34.4 68.72 34.08 68.84 31.88C69.64 32.48 71.44 33.12 72.6 33.36C72.16 37.12 71.04 38.16 68.32 38.16C67.52 38.16 65.32 38.16 64.56 38.16C60.64 38.16 59.84 36.96 59.84 33.4V29.2ZM55 28.84L58.84 30C58.2 33.08 57.2 36.12 54.96 38.08L51.56 35.6C53.4 34.08 54.52 31.44 55 28.84ZM70.64 30.12L74.08 28.4C76.16 30.6 78.28 33.64 79.08 35.84L75.36 37.76C74.68 35.6 72.68 32.44 70.64 30.12ZM70.6 13.08V17H73.48V13.08H70.6ZM64.52 13.08V17H67.36V13.08H64.52ZM58.52 13.08V17H61.28V13.08H58.52ZM54.84 9.72H77.36V20.36H54.84V9.72ZM63.64 0.919998L68.68 1.04C68.28 4.68 67.8 8.48 67.4 10.92L62.92 10.64C63.28 7.96 63.6 3.88 63.64 0.919998ZM49.48 9.84L53.72 11.32C51.2 16.92 47.24 23.12 43.56 27.08C43.08 26.04 41.72 23.68 40.92 22.6C44.12 19.44 47.44 14.56 49.48 9.84ZM48.84 1.04L53.04 2.76C50.48 6.24 46.8 10.16 43.64 12.8C43.04 11.84 41.84 10.16 41.12 9.28C43.8 7.16 47.12 3.68 48.84 1.04ZM46.24 18.52L48.48 16.24L50.72 16.96V38.64H46.24V18.52Z" fill="#DF5B11"/>
<path d="M100.12 13.68H112.72V17.96H100.12V13.68ZM99.32 32.52H113.84V36.88H99.32V32.52ZM106.36 6.56C104.32 10.36 100.4 15.08 96.08 17.84C95.6 16.52 94.48 14.64 93.64 13.52C98 10.92 102 5.72 103.84 1.64H108.52C111.16 6.36 115.2 11 119.36 13.12C118.4 14.4 117.4 16.24 116.72 17.72C112.6 15.12 108.48 10.44 106.36 6.56ZM97.24 21.36H116.24V38.56H111.36V25.68H101.88V38.6H97.24V21.36ZM85.36 5.04H94.92V28H85.36V23.56H90.36V9.48H85.36V5.04ZM82.56 5.04H86.96V31.32H82.56V5.04Z" fill="#F2CF17"/>
</svg>
